<svg width="12" height="12" viewBox="0 0 12 12" fill="none" xmlns="http://www.w3.org/2000/svg">
  <path d="M10.5 7.5V3M6 6H1.5M8 3H1.5M6 9H1.5M9.25 9C9.58152 9 9.89946 8.8683 10.1339 8.63388C10.3683 8.39946 10.5 8.08152 10.5 7.75C10.5 7.41848 10.3683 7.10054 10.1339 6.86612C9.89946 6.6317 9.58152 6.5 9.25 6.5C8.91848 6.5 8.60054 6.6317 8.36612 6.86612C8.1317 7.10054 8 7.41848 8 7.75C8 8.08152 8.1317 8.39946 8.36612 8.63388C8.60054 8.8683 8.91848 9 9.25 9Z" stroke="currentColor" stroke-linecap="round" stroke-linejoin="round"/>
</svg>
