<svg xmlns="http://www.w3.org/2000/svg" viewBox="0 0 20 20" width="1em" height="1em" focusable="false"><path d="M11.017 2.068a7.93 7.93 0 0 0-5.092 1.048A8.157 8.157 0 0 0 3.5 5.324V3.667a.75.75 0 1 0-1.5 0v3.722c0 .414.336.75.75.75h3.625a.75.75 0 0 0 0-1.5H4.422A6.68 6.68 0 0 1 6.69 4.406a6.43 6.43 0 0 1 4.13-.85 6.518 6.518 0 0 1 3.79 1.902 6.864 6.864 0 0 1 1.897 3.893.75.75 0 1 0 1.486-.202 8.363 8.363 0 0 0-2.314-4.743 8.018 8.018 0 0 0-4.662-2.338ZM3.493 10.65a.75.75 0 0 0-1.486.2 8.364 8.364 0 0 0 2.314 4.744 8.018 8.018 0 0 0 4.662 2.338 7.93 7.93 0 0 0 5.092-1.048 8.159 8.159 0 0 0 2.425-2.208v1.657a.75.75 0 0 0 1.5 0v-3.722a.75.75 0 0 0-.75-.75h-3.625a.75.75 0 0 0 0 1.5h1.953a6.68 6.68 0 0 1-2.268 2.233 6.43 6.43 0 0 1-4.13.85 6.518 6.518 0 0 1-3.79-1.902 6.863 6.863 0 0 1-1.897-3.893Z"/></svg>