<svg xmlns="http://www.w3.org/2000/svg" viewBox="0 0 20 20" width="1em" height="1em" focusable="false"><path d="M16.214 8.088a6.82 6.82 0 0 0-1.604-2.63 6.518 6.518 0 0 0-3.79-1.903 6.401 6.401 0 0 0-2.93.295 6.497 6.497 0 0 0-2.231 1.312c-.477.428-.89.926-1.224 1.477h1.94a.75.75 0 1 1 0 1.5H2.75a.75.75 0 0 1-.75-.75V3.667a.75.75 0 1 1 1.5 0v1.657a8.21 8.21 0 0 1 1.262-1.37A7.983 7.983 0 0 1 9.99 2H10a8.004 8.004 0 0 1 7.65 5.652c.159.485.274.986.343 1.497a.748.748 0 0 1-.013.276 8 8 0 0 1-15.671 2.782.75.75 0 1 1 1.441-.414 6.5 6.5 0 1 0 12.464-3.705Z"/></svg>