<svg xmlns="http://www.w3.org/2000/svg" viewBox="0 0 20 20" width="1em" height="1em" focusable="false"><path d="M8.113 5.648a2.999 2.999 0 0 0-2.465 2.465c-.028.167-.268.167-.296 0a2.999 2.999 0 0 0-2.465-2.465c-.167-.028-.167-.268 0-.296a2.999 2.999 0 0 0 2.465-2.465c.028-.167.268-.167.296 0a2.999 2.999 0 0 0 2.465 2.465c.167.028.167.268 0 .296ZM4.72 10.518l2.363-.661a4 4 0 0 0 2.774-2.774l.662-2.363c.136-.487.826-.487.963 0l.661 2.363a4 4 0 0 0 2.774 2.774l2.363.662c.487.136.487.826 0 .963l-2.363.661a4 4 0 0 0-2.774 2.774l-.662 2.363c-.136.487-.826.487-.963 0l-.661-2.363a4 4 0 0 0-2.774-2.774l-2.363-.662c-.487-.136-.487-.826 0-.963Z"/></svg>